<svg id="Capa_1" enable-background="new 0 0 512 512" height="512" viewBox="0 0 512 512" width="512" xmlns="http://www.w3.org/2000/svg"><g><g><g><g><path d="m392.9 26.29h-370.4c-8.28 0-15 6.71-15 15v347.4c0 6.214 3.786 11.55 9.175 13.825 18.304-18.303 329.468-329.468 376.225-376.225z" fill="#fee265"/></g><path d="m489.5 26.29h-53.324l-377.4 377.4h430.724c8.28 0 15-6.72 15-15v-347.4c0-8.29-6.72-15-15-15z" fill="#23f1a8"/><path d="m504.5 41.286v347.4c0 8.29-6.72 15-15 15h-42.77c8.29 0 15-6.71 15-15v-347.4c0-8.29-6.71-15-15-15h42.77c8.28 0 15 6.71 15 15z" fill="#26d192"/><path d="m504.5 69.24v231.26l-166.26-166.25 66.16-65.01z" fill="#31a7fb"/><path d="m450.14 69.24-334.44 334.45h-93.2c-8.28 0-15-6.72-15-15v-27.5l291.95-291.95z" fill="#deecf0"/><path d="m504.5 69.24v231.26l-42.77-42.77v-188.49z" fill="#1c96f9"/><path d="m504.5 89.315v-48.03c0-8.284-6.716-15-15-15h-467c-8.284 0-15 6.716-15 15v48.03z" fill="#eef4f5"/><path d="m489.5 26.285h-338.081v63.03h353.081v-48.03c0-8.284-6.716-15-15-15z" fill="#cbe5e7"/><path d="m504.5 41.286v48.03h-42.77v-48.03c0-8.29-6.71-15-15-15h42.77c8.28 0 15 6.71 15 15z" fill="#a9d3d8"/></g><g><g><g><g><g><g><g><g><path d="m327.909 343.542h32.552v49.256h-32.552z" fill="#557983" transform="matrix(.707 -.707 .707 .707 -159.526 351.212)"/><path d="m358.856 359.829c-2.296 4.897-5.463 9.478-9.5 13.516-3.994 3.983-8.542 7.182-13.494 9.522l-20.6-20.6 23.016-23.016z" fill="#3f5959"/></g><path d="m453.254 477.239c-11.301 11.301-29.625 11.302-40.926 0l-66.507-66.506c-3.735-3.735-3.735-9.792 0-13.527l27.399-27.399c3.735-3.735 9.792-3.735 13.527 0l66.507 66.506c11.301 11.301 11.301 29.624 0 40.926z" fill="#31a7fb"/><path d="m453.258 477.236c-3.885 3.885-8.597 6.431-13.57 7.65 2.329-9.5-.229-19.947-7.639-27.368l-66.511-66.5c-3.733-3.733-9.794-3.733-13.526 0l21.209-21.209c3.733-3.733 9.794-3.733 13.526 0l66.511 66.5c11.296 11.306 11.296 29.631 0 40.927z" fill="#1c96f9"/><g><path d="m333.965 357.95c-10.33 10.33-27.077 10.33-37.407 0l-18.703-18.703 37.407-37.407 18.703 18.703c10.329 10.33 10.329 27.077 0 37.407z" fill="#31a7fb"/><path d="m338.278 326.203c-9.75 14.07-21.982 26.302-36.052 36.052-2.035-1.143-3.939-2.579-5.67-4.309l-18.706-18.695 37.413-37.413 18.706 18.706c1.73 1.731 3.166 3.635 4.309 5.659z" fill="#1c96f9"/></g><g><circle cx="221.533" cy="245.518" fill="#a9d3d8" r="120.197"/><path d="m341.728 245.523c0 66.381-53.812 120.193-120.193 120.193-6.714 0-13.309-.555-19.718-1.611 57-9.413 100.474-58.916 100.474-118.582 0-59.677-43.474-109.18-100.474-118.593 6.41-1.056 13.004-1.611 19.718-1.611 66.381.001 120.193 53.812 120.193 120.204z" fill="#90bac4"/><g><circle cx="220.815" cy="245.518" fill="#eef4f5" r="84.779"/><path d="m305.588 245.523c0 46.815-37.957 84.772-84.771 84.772-6.225 0-12.297-.675-18.141-1.948 38.098-8.303 66.631-42.233 66.631-82.824 0-40.601-28.533-74.531-66.631-82.834 5.844-1.273 11.916-1.948 18.141-1.948 46.814 0 84.771 37.956 84.771 84.782z" fill="#cbe5e7"/></g></g></g></g></g></g></g></g></g></g><g><path d="m281.944 173.62c0 26.724-38.757 77.469-54.185 96.609-3.2 3.97-9.252 3.97-12.453 0-15.427-19.141-54.185-69.885-54.185-96.609 0-33.364 27.047-60.411 60.411-60.411s60.412 27.047 60.412 60.411z" fill="#fb5532"/><path d="m281.94 173.62c0 26.72-38.75 77.47-54.18 96.61-3.2 3.97-9.25 3.97-12.45 0-2.48-3.08-5.57-6.98-8.99-11.46 17.89-23.39 45.18-62.73 45.18-85.15 0-28.1-19.2-51.73-45.19-58.48 4.87-1.26 9.96-1.93 15.22-1.93 33.37 0 60.41 27.05 60.41 60.41z" fill="#ec462e"/><circle cx="221.533" cy="168.344" fill="#deecf0" r="23.639"/><g><path d="m52.945 65.3h.104.036c4.125 0 7.479-3.334 7.499-7.465.02-4.142-3.323-7.516-7.465-7.535h-.104c-.012 0-.024 0-.036 0-4.125 0-7.479 3.334-7.499 7.465-.019 4.142 3.323 7.515 7.465 7.535z"/><path d="m79.042 65.3h.104.036c4.125 0 7.479-3.334 7.499-7.465.02-4.142-3.323-7.516-7.465-7.535h-.104c-.012 0-.024 0-.036 0-4.125 0-7.479 3.334-7.499 7.465-.019 4.142 3.323 7.515 7.465 7.535z"/><path d="m105.139 65.3h.104.036c4.125 0 7.479-3.334 7.499-7.465.02-4.142-3.323-7.516-7.465-7.535h-.103c-.012 0-.024 0-.036 0-4.125 0-7.479 3.334-7.499 7.465-.021 4.142 3.322 7.515 7.464 7.535z"/><path d="m512 300.497v-259.212c0-12.407-10.094-22.5-22.5-22.5h-68.983c-4.143 0-7.5 3.358-7.5 7.5s3.357 7.5 7.5 7.5h68.983c4.136 0 7.5 3.365 7.5 7.5v40.531h-338.081v-48.031h224.571c4.143 0 7.5-3.358 7.5-7.5s-3.357-7.5-7.5-7.5h-360.99c-12.407 0-22.5 10.093-22.5 22.5v347.402c0 12.407 10.093 22.5 22.5 22.5h314.643c.817 1.754 1.929 3.403 3.375 4.848l18.771 18.77c2.928 2.929 7.677 2.929 10.606 0s2.929-7.678-.001-10.606l-18.77-18.77c-.806-.805-.806-2.115 0-2.92l27.399-27.4c.499-.5 1.069-.604 1.459-.604.391 0 .961.105 1.46.605l66.507 66.506c8.359 8.359 8.359 21.961.001 30.32-4.05 4.049-9.434 6.279-15.16 6.279s-11.11-2.23-15.159-6.279l-21.555-21.555c-2.93-2.929-7.678-2.929-10.607 0s-2.929 7.678 0 10.606l21.555 21.555c6.883 6.882 16.033 10.673 25.767 10.673 9.732 0 18.884-3.791 25.767-10.673 14.206-14.208 14.206-37.325 0-51.533l-19.822-19.822h50.764c12.406 0 22.5-10.093 22.5-22.5v-88.185c0-.001 0-.003 0-.005zm-15-18.102-124.707-124.699 60.877-60.879h63.83zm-168.344 43.448c7.391 7.39 7.391 19.414-.002 26.806-3.574 3.578-8.33 5.548-13.391 5.548-5.063 0-9.821-1.971-13.403-5.554l-4.469-4.465c10.202-7.559 19.242-16.599 26.801-26.801zm10.608 37.41c2.146-2.146 3.938-4.513 5.389-7.025l15.769 15.77-12.409 12.409-15.76-15.761c2.529-1.468 4.888-3.268 7.011-5.393zm-117.734 9.967c22.903 0 44.413-6.065 63.019-16.666l6.707 6.7c6.413 6.413 14.939 9.944 24.008 9.944.106 0 .212-.007.318-.008l22.246 22.246c-.144.25-.293.497-.424.752h-203.595l34.569-34.571c16.192 7.444 34.195 11.603 53.152 11.603zm0-15c-62.138 0-112.69-50.557-112.69-112.7 0-37.117 18.254-71.342 47.88-92.191-2.011 6.41-3.098 13.225-3.098 20.29 0 2.462.286 5.084.798 7.825-11.573 11.995-19.653 26.796-23.444 43.008-.943 4.034 1.563 8.068 5.596 9.011.575.134 1.148.198 1.714.198 3.406 0 6.488-2.335 7.297-5.794 2.531-10.825 7.35-20.899 14.117-29.633 10.938 26.215 34.256 57.456 49.768 76.701 2.956 3.668 7.354 5.771 12.065 5.771 4.712 0 9.11-2.104 12.066-5.771 15.276-18.953 38.118-49.539 49.256-75.502 9.887 13.259 15.235 29.266 15.235 46.087 0 42.612-34.668 77.28-77.28 77.28-36.28 0-68.068-25.724-75.583-61.166-.859-4.052-4.837-6.64-8.893-5.781-4.052.859-6.641 4.841-5.781 8.893 4.32 20.374 15.616 38.904 31.806 52.177 16.421 13.463 37.18 20.877 58.451 20.877 50.883 0 92.28-41.396 92.28-92.28 0-23.506-8.758-45.67-24.7-62.808.674-3.203 1.054-6.254 1.054-9.093 0-7.067-1.088-13.884-3.1-20.296 29.631 20.842 47.887 55.069 47.887 92.196-.001 62.144-50.557 112.701-112.701 112.701zm-50.509-229.933c-46.325 20.406-77.181 66.623-77.181 117.233 0 5.942.417 11.788 1.207 17.517l-80.047 80.046v-246.267h246.267l-13.979 13.98c-7.948-3.27-16.642-5.087-25.755-5.087-20.038 0-38.071 8.729-50.512 22.578zm103.422 45.333c0 19.713-27.132 60.399-52.523 91.903-.044.055-.149.185-.387.185s-.342-.129-.387-.185c-25.392-31.503-52.524-72.19-52.524-91.903 0-29.175 23.736-52.911 52.911-52.911s52.91 23.736 52.91 52.911zm-2.396-45.331c-3.325-3.702-7.056-7.027-11.112-9.928l21.545-21.545h129.477l-81.724 81.726c-13.324-21.629-33.966-39.592-58.186-50.253zm-249.547-94.504h121.419v48.031h-128.919v-40.531c0-4.135 3.365-7.5 7.5-7.5zm-7.5 354.903v-24.391l83.73-83.73c8.838 30.926 29.071 57.087 55.843 73.643l-41.977 41.978h-90.096c-4.135 0-7.5-3.365-7.5-7.5zm474.5 7.5h-65.764l-31.685-31.685c-3.224-3.223-7.509-4.999-12.067-4.999-3.05 0-5.969.812-8.539 2.303l-22.26-22.26c.078-8.795-3.226-17.614-9.922-24.31l-6.699-6.699c10.601-18.605 16.666-40.115 16.666-63.018 0-18.718-4.103-36.783-11.604-53.156l24.061-24.062 135.313 135.305v85.081c0 4.135-3.364 7.5-7.5 7.5z"/><path d="m221.533 137.206c-17.169 0-31.138 13.969-31.138 31.139 0 17.169 13.969 31.138 31.138 31.138 17.17 0 31.139-13.969 31.139-31.138-.001-17.171-13.969-31.139-31.139-31.139zm0 47.276c-8.898 0-16.138-7.24-16.138-16.138 0-8.899 7.24-16.139 16.138-16.139 8.899 0 16.139 7.24 16.139 16.139-.001 8.899-7.24 16.138-16.139 16.138z"/></g></g></g></svg>